<svg viewBox="0 0 32 32" xmlns="http://www.w3.org/2000/svg"><path d="M16 31.625C7.384 31.625.375 24.615.375 16 .375 7.384 7.384.375 16 .375 24.615.375 31.625 7.384 31.625 16c0 8.615-7.01 15.625-15.625 15.625z" fill="#FFF"/><path d="M16 .75C24.409.75 31.25 7.591 31.25 16S24.409 31.25 16 31.25.75 24.409.75 16 7.591.75 16 .75M16 0C7.163 0 0 7.163 0 16c0 8.836 7.163 16 16 16s16-7.164 16-16c0-8.837-7.163-16-16-16z" fill="#E5E5E5"/><path d="M13.69 24.903h3.679v-8.904h2.454l.325-3.068h-2.779l.004-1.536c0-.8.076-1.229 1.224-1.229h1.534V7.097h-2.455c-2.949 0-3.986 1.489-3.986 3.992v1.842h-1.838V16h1.838v8.903z" fill="#333"/></svg>